<svg version="1.1" id="Layer_1" xmlns="http://www.w3.org/2000/svg" xmlns:xlink="http://www.w3.org/1999/xlink" x="0px" y="0px"
	 width="100%" viewBox="0 0 750 750" enable-background="new 0 0 750 750" xml:space="preserve">
<path fill="#00000000" opacity="1.000000" stroke="none" 
	d="
M469.000000,751.000000 
	C312.666656,751.000000 156.833328,751.000000 1.000000,751.000000 
	C1.000000,501.000000 1.000000,251.000000 1.000000,1.000000 
	C251.000000,1.000000 501.000000,1.000000 751.000000,1.000000 
	C751.000000,251.000000 751.000000,501.000000 751.000000,751.000000 
	C657.166687,751.000000 563.333313,751.000000 469.000000,751.000000 
M509.013733,639.006409 
	C509.013733,639.006409 509.009827,638.982056 509.543365,638.677063 
	C510.385193,637.822327 511.227020,636.967590 512.107483,636.105652 
	C512.107483,636.105652 512.118408,636.067932 512.725708,635.816711 
	C514.833740,633.904419 516.941772,631.992126 519.647766,629.752319 
	C525.295959,624.874390 530.970154,620.026123 536.587952,615.113403 
	C562.348633,592.585815 588.058655,570.000244 613.857910,547.516907 
	C627.889099,535.289124 642.202393,523.381897 656.113403,511.020538 
	C663.290222,504.643219 670.969666,498.379364 676.482666,490.676331 
	C687.880493,474.750580 692.614502,456.385773 690.539062,436.803375 
	C689.255432,424.693115 683.221802,415.387878 670.739746,411.944763 
	C666.463440,410.765137 661.897461,410.180420 657.455933,410.137634 
	C641.640137,409.985229 625.821106,410.204529 610.003174,410.243286 
	C586.885254,410.299957 563.719360,410.620880 540.937683,405.902100 
	C531.862183,404.022186 523.017944,401.025818 513.436462,398.098206 
	C506.320984,394.682220 499.205505,391.266235 491.561005,387.417816 
	C483.380096,382.274719 475.199188,377.131622 466.632019,371.443085 
	C459.758789,365.295776 452.885590,359.148499 445.647522,352.443848 
	C437.414673,342.442261 429.181793,332.440674 420.782349,321.704895 
	C420.425720,320.776031 420.253876,319.711182 419.685089,318.938477 
	C409.010834,304.437378 402.363220,287.937073 396.058197,271.284332 
	C387.672180,249.135086 383.329071,226.090393 383.000305,202.504013 
	C382.508331,167.207001 382.933441,131.897766 382.778381,96.594582 
	C382.762756,93.033218 381.674255,89.410408 380.671814,85.934906 
	C379.131775,80.595543 374.258514,79.976318 369.920959,79.787750 
	C365.652008,79.602158 362.307983,82.279549 360.655182,86.245811 
	C359.727081,88.472946 359.319214,91.066628 359.301117,93.499809 
	C359.137787,115.479355 358.968170,137.460693 359.083374,159.440002 
	C359.228821,187.190002 357.849274,214.998642 363.014313,242.546188 
	C368.427856,271.419312 377.846527,298.745972 393.166901,324.688202 
	C396.303284,329.885376 399.274109,335.192810 402.635956,340.239746 
	C404.772461,343.447205 407.489960,346.267700 410.432220,349.468140 
	C410.986359,350.799957 411.244324,352.388763 412.141632,353.422760 
	C419.088348,361.427826 425.729248,369.764557 433.287201,377.157928 
	C445.853424,389.450623 459.596252,400.376648 475.491638,409.513336 
	C481.663574,412.669250 487.835510,415.825195 494.473236,419.294708 
	C494.992218,419.506744 495.511230,419.718750 496.479034,420.269592 
	C496.983948,420.517487 497.488831,420.765411 498.575378,421.415588 
	C524.671570,433.184998 552.279053,437.782898 580.648682,437.935425 
	C604.748718,438.065033 628.853088,437.397552 652.955322,437.064026 
	C663.171814,436.922638 669.310974,443.521698 666.595398,453.486633 
	C664.819214,460.004364 661.365356,466.465576 657.212524,471.829163 
	C652.479797,477.941650 646.000183,482.674225 640.538818,488.259796 
	C637.046021,491.832062 634.033569,491.320343 630.601990,488.378754 
	C615.390686,475.339447 599.259155,474.821472 582.871399,486.675629 
	C577.755127,490.376465 572.650452,494.126221 567.291077,497.451691 
	C550.919067,507.610596 534.542053,517.771301 517.945068,527.554932 
	C502.920258,536.411743 486.748169,539.374329 469.445953,535.841248 
	C457.882965,533.480103 448.153259,527.439697 438.529541,521.185242 
	C417.894806,507.774811 397.395935,494.155457 376.799011,480.686554 
	C372.643555,477.969208 368.300201,475.539246 363.634247,472.439362 
	C355.976593,465.677368 346.504517,462.803101 337.000000,460.000000 
	C337.000000,460.000000 336.995880,460.004578 336.746643,459.851746 
	C336.456055,459.751068 336.175720,459.781036 335.493988,459.965271 
	C335.493988,459.965271 335.081848,459.975067 334.550903,459.487274 
	C332.712463,458.744202 330.936310,457.690765 329.025696,457.307220 
	C313.774933,454.245728 298.498779,451.311066 282.440186,448.106171 
	C279.353729,447.466339 276.291534,446.647583 273.175598,446.225128 
	C267.259766,445.423126 260.916840,445.939209 255.459900,443.957001 
	C243.208694,439.506866 233.563019,431.151825 227.751328,419.400879 
	C220.087448,403.904816 220.769257,387.818512 226.648544,371.879059 
	C229.752136,363.464844 233.662247,355.340912 236.607452,346.876862 
	C244.631821,323.816010 243.709991,299.722351 243.891251,275.848785 
	C244.052948,254.553024 243.082565,233.250595 243.083740,211.951126 
	C243.084976,189.479553 243.773529,167.008896 243.924911,144.536224 
	C244.078415,121.750916 243.990051,98.963402 243.867676,76.177605 
	C243.853714,73.580460 243.304810,70.845985 242.365616,68.422592 
	C240.279434,63.039677 237.035172,59.352280 227.858185,61.260357 
	C223.727463,62.119209 220.259735,67.308777 220.255768,72.899979 
	C220.210938,136.220886 220.262070,199.541977 220.106018,262.862579 
	C220.063828,279.986084 219.702866,297.120789 218.955597,314.227112 
	C218.206375,331.377594 210.635361,346.520691 204.097046,361.994110 
	C199.604950,372.624969 197.593292,383.991974 198.512497,395.603058 
	C199.004669,401.819794 197.629623,404.120789 191.528702,404.030060 
	C177.261978,403.817932 162.999908,403.203979 148.733292,403.091644 
	C126.330345,402.915253 103.925026,402.961823 81.521095,403.033417 
	C73.756538,403.058258 71.820137,405.628662 73.523575,413.415619 
	C73.649559,413.590454 73.798233,413.743225 74.054657,413.913452 
	C74.054657,413.913452 74.141762,413.948273 74.564468,414.517700 
	C76.479492,415.298920 78.358070,416.622894 80.316719,416.754425 
	C85.201729,417.082397 90.123146,416.868256 95.962425,416.920929 
	C116.087837,417.274902 136.212250,417.711517 156.339005,417.953796 
	C169.778305,418.115601 183.221008,418.025024 196.662048,417.991547 
	C199.789200,417.983765 201.799637,418.894684 203.145767,422.150879 
	C205.921677,428.865631 208.806946,435.621277 212.500687,441.854279 
	C223.327820,460.124481 240.390518,469.033783 260.671753,472.817413 
	C282.565430,476.901855 304.489746,480.842285 326.311401,485.284332 
	C338.246002,487.713776 348.303467,494.341522 358.331696,501.029205 
	C377.562836,513.854126 397.041718,526.308716 416.464050,538.845337 
	C425.117920,544.431091 433.551331,550.488281 442.673157,555.190002 
	C458.061768,563.121948 474.537689,565.603210 491.982178,564.302490 
	C510.928680,562.889771 527.563843,555.599976 541.683594,544.189209 
	C558.709106,530.430176 573.990723,514.494141 589.835876,499.300873 
	C598.726868,490.775635 610.792725,489.439362 620.639526,496.799438 
	C624.202881,499.462891 627.132996,502.960052 630.462830,505.953522 
	C633.349548,508.548645 633.761047,511.172180 630.498291,514.441223 
	C627.361633,517.326233 624.224976,520.211243 620.532227,523.460571 
	C612.890076,530.110107 605.253723,536.766296 597.604370,543.407593 
	C586.444214,553.097107 575.225220,562.719543 564.124634,572.476868 
	C555.264771,580.264709 546.587646,588.260132 537.749084,596.072571 
	C530.062073,602.867126 521.927551,609.189514 514.579773,616.326965 
	C497.184692,633.224243 476.869202,642.871094 452.421875,644.163818 
	C434.470154,645.113098 417.862305,639.938782 401.269287,634.531677 
	C381.827881,628.196228 362.585938,621.251526 343.198486,614.746887 
	C318.301880,606.393921 293.300537,598.351624 268.432251,589.916138 
	C250.859146,583.955322 233.575974,577.111389 215.899796,571.490662 
	C197.845551,565.749634 178.853165,565.885132 160.151123,564.577515 
	C158.606979,564.469604 155.737320,567.078247 155.395096,568.803772 
	C153.825531,576.717285 156.550873,579.373657 165.577271,579.815674 
	C171.383759,580.100037 177.185043,580.490479 183.743683,580.852417 
	C184.496140,580.802124 185.248581,580.751770 186.647110,580.680847 
	C187.076843,580.649353 187.506561,580.617859 188.825958,580.675232 
	C195.206177,581.473450 201.586395,582.271667 208.540222,583.510925 
	C229.572128,590.878296 250.582626,598.307617 271.645660,605.584900 
	C281.059265,608.837341 290.578400,611.784424 300.600647,615.329773 
	C310.429688,618.497314 320.258728,621.664795 330.741821,625.129089 
	C343.488770,629.437317 356.235718,633.745483 369.587311,638.431091 
	C373.721039,639.625916 377.854767,640.820740 382.573608,642.402405 
	C393.871918,646.253967 405.036499,650.582214 416.512085,653.801941 
	C425.247864,656.252991 434.319000,658.190552 443.345184,658.792236 
	C467.056641,660.372986 488.636292,653.669678 508.396759,639.679077 
	C508.635559,639.493713 508.833282,639.271667 509.013733,639.006409 
z"/>
<path fill="#000000" opacity="1.000000" stroke="none" 
	d="
M508.014313,639.910706 
	C488.636292,653.669678 467.056641,660.372986 443.345184,658.792236 
	C434.319000,658.190552 425.247864,656.252991 416.512085,653.801941 
	C405.036499,650.582214 393.871918,646.253967 382.211578,641.863892 
	C379.195068,636.488953 376.176331,635.721375 368.982666,638.053711 
	C356.235718,633.745483 343.488770,629.437317 330.370331,624.654053 
	C329.651733,619.312439 324.958740,620.622498 322.391846,619.218140 
	C315.536530,615.467773 307.963776,613.923096 300.049652,614.870056 
	C290.578400,611.784424 281.059265,608.837341 271.645660,605.584900 
	C250.582626,598.307617 229.572128,590.878296 208.133636,582.955444 
	C205.016083,574.491577 194.912582,574.811401 187.936295,580.586365 
	C187.506561,580.617859 187.076843,580.649353 186.157684,580.550171 
	C184.775070,580.557495 183.881866,580.695496 182.988663,580.833435 
	C177.185043,580.490479 171.383759,580.100037 165.577271,579.815674 
	C156.550873,579.373657 153.825531,576.717285 155.395096,568.803772 
	C155.737320,567.078247 158.606979,564.469604 160.151123,564.577515 
	C178.853165,565.885132 197.845551,565.749634 215.899796,571.490662 
	C233.575974,577.111389 250.859146,583.955322 268.432251,589.916138 
	C293.300537,598.351624 318.301880,606.393921 343.198486,614.746887 
	C362.585938,621.251526 381.827881,628.196228 401.269287,634.531677 
	C417.862305,639.938782 434.470154,645.113098 452.421875,644.163818 
	C476.869202,642.871094 497.184692,633.224243 514.579773,616.326965 
	C521.927551,609.189514 530.062073,602.867126 537.749084,596.072571 
	C546.587646,588.260132 555.264771,580.264709 564.124634,572.476868 
	C575.225220,562.719543 586.444214,553.097107 597.604370,543.407593 
	C605.253723,536.766296 612.890076,530.110107 621.125427,523.355225 
	C627.393494,523.131226 630.116638,520.468628 631.070496,514.106079 
	C633.761047,511.172180 633.349548,508.548645 630.462830,505.953522 
	C627.132996,502.960052 624.202881,499.462891 620.639526,496.799438 
	C610.792725,489.439362 598.726868,490.775635 589.835876,499.300873 
	C573.990723,514.494141 558.709106,530.430176 541.683594,544.189209 
	C527.563843,555.599976 510.928680,562.889771 491.982178,564.302490 
	C474.537689,565.603210 458.061768,563.121948 442.673157,555.190002 
	C433.551331,550.488281 425.117920,544.431091 416.464050,538.845337 
	C397.041718,526.308716 377.562836,513.854126 358.331696,501.029205 
	C348.303467,494.341522 338.246002,487.713776 326.311401,485.284332 
	C304.489746,480.842285 282.565430,476.901855 260.671753,472.817413 
	C240.390518,469.033783 223.327820,460.124481 212.500687,441.854279 
	C208.806946,435.621277 205.921677,428.865631 203.145767,422.150879 
	C201.799637,418.894684 199.789200,417.983765 196.662048,417.991547 
	C183.221008,418.025024 169.778305,418.115601 156.339005,417.953796 
	C136.212250,417.711517 116.087837,417.274902 95.318077,416.601440 
	C91.171928,411.775116 86.438141,413.043213 81.844933,413.493195 
	C79.286896,413.743774 76.710106,413.802887 74.141762,413.948273 
	C74.141762,413.948273 74.054657,413.913452 73.917976,413.766174 
	C73.651070,413.452057 73.514511,413.290558 73.371628,413.134430 
	C71.820137,405.628662 73.756538,403.058258 81.521095,403.033417 
	C103.925026,402.961823 126.330345,402.915253 148.733292,403.091644 
	C162.999908,403.203979 177.261978,403.817932 191.528702,404.030060 
	C197.629623,404.120789 199.004669,401.819794 198.512497,395.603058 
	C197.593292,383.991974 199.604950,372.624969 204.097046,361.994110 
	C210.635361,346.520691 218.206375,331.377594 218.955597,314.227112 
	C219.702866,297.120789 220.063828,279.986084 220.106018,262.862579 
	C220.262070,199.541977 220.210938,136.220886 220.255768,72.899979 
	C220.259735,67.308777 223.727463,62.119209 227.858185,61.260357 
	C237.035172,59.352280 240.279434,63.039677 242.365616,68.422592 
	C243.304810,70.845985 243.853714,73.580460 243.867676,76.177605 
	C243.990051,98.963402 244.078415,121.750916 243.924911,144.536224 
	C243.773529,167.008896 243.084976,189.479553 243.083740,211.951126 
	C243.082565,233.250595 244.052948,254.553024 243.891251,275.848785 
	C243.709991,299.722351 244.631821,323.816010 236.607452,346.876862 
	C233.662247,355.340912 229.752136,363.464844 226.648544,371.879059 
	C220.769257,387.818512 220.087448,403.904816 227.751328,419.400879 
	C233.563019,431.151825 243.208694,439.506866 255.459900,443.957001 
	C260.916840,445.939209 267.259766,445.423126 273.175598,446.225128 
	C276.291534,446.647583 279.353729,447.466339 283.077911,448.419495 
	C289.011780,450.521759 294.243317,452.541534 299.618958,454.046448 
	C308.011322,456.395905 316.730316,457.780945 324.854126,460.802612 
	C328.959808,462.329742 331.857178,462.878571 335.081848,459.975067 
	C335.081848,459.975067 335.493988,459.965271 335.972595,459.970215 
	C336.632751,459.984955 336.814331,459.994781 336.995880,460.004578 
	C336.995880,460.004578 337.000000,460.000000 337.165253,460.294434 
	C344.880157,467.639404 354.155457,470.968689 364.043488,472.976746 
	C368.300201,475.539246 372.643555,477.969208 376.799011,480.686554 
	C397.395935,494.155457 417.894806,507.774811 438.529541,521.185242 
	C448.153259,527.439697 457.882965,533.480103 469.445953,535.841248 
	C486.748169,539.374329 502.920258,536.411743 517.945068,527.554932 
	C534.542053,517.771301 550.919067,507.610596 567.291077,497.451691 
	C572.650452,494.126221 577.755127,490.376465 582.871399,486.675629 
	C599.259155,474.821472 615.390686,475.339447 630.601990,488.378754 
	C634.033569,491.320343 637.046021,491.832062 640.538818,488.259796 
	C646.000183,482.674225 652.479797,477.941650 657.212524,471.829163 
	C661.365356,466.465576 664.819214,460.004364 666.595398,453.486633 
	C669.310974,443.521698 663.171814,436.922638 652.955322,437.064026 
	C628.853088,437.397552 604.748718,438.065033 580.648682,437.935425 
	C552.279053,437.782898 524.671570,433.184998 498.173279,421.045593 
	C497.190887,420.427307 496.610565,420.179047 496.030243,419.930756 
	C495.511230,419.718750 494.992218,419.506744 494.105591,418.826202 
	C490.958893,415.635742 488.606110,411.910156 485.272308,410.494049 
	C482.350311,409.252899 478.857239,405.635773 474.975037,409.079529 
	C459.596252,400.376648 445.853424,389.450623 433.287201,377.157928 
	C425.729248,369.764557 419.088348,361.427826 412.141632,353.422760 
	C411.244324,352.388763 410.986359,350.799957 410.176331,348.953064 
	C409.910919,348.272308 409.958435,348.073181 409.883728,347.945770 
	C405.059357,339.716248 400.238037,331.484741 395.304657,323.320923 
	C395.199005,323.146088 393.794769,323.755951 392.996338,323.999756 
	C377.846527,298.745972 368.427856,271.419312 363.014313,242.546188 
	C357.849274,214.998642 359.228821,187.190002 359.083374,159.440002 
	C358.968170,137.460693 359.137787,115.479355 359.301117,93.499809 
	C359.319214,91.066628 359.727081,88.472946 360.655182,86.245811 
	C362.307983,82.279549 365.652008,79.602158 369.920959,79.787750 
	C374.258514,79.976318 379.131775,80.595543 380.671814,85.934906 
	C381.674255,89.410408 382.762756,93.033218 382.778381,96.594582 
	C382.933441,131.897766 382.508331,167.207001 383.000305,202.504013 
	C383.329071,226.090393 387.672180,249.135086 396.058197,271.284332 
	C402.363220,287.937073 409.010834,304.437378 419.685089,318.938477 
	C420.253876,319.711182 420.425720,320.776031 420.932556,322.438110 
	C422.383301,326.635071 423.102936,330.491364 425.117340,333.472778 
	C428.329590,338.227081 432.163330,342.635986 436.200806,346.730896 
	C438.711365,349.277161 442.081848,350.975494 445.145386,353.411011 
	C449.682892,363.197662 456.856842,369.379730 467.018280,371.988525 
	C475.199188,377.131622 483.380096,382.274719 491.907532,387.981506 
	C496.188171,396.053436 504.167145,397.250122 510.910797,400.299988 
	C511.564056,400.595459 512.997253,399.166290 514.068420,398.537720 
	C523.017944,401.025818 531.862183,404.022186 540.937683,405.902100 
	C563.719360,410.620880 586.885254,410.299957 610.003174,410.243286 
	C625.821106,410.204529 641.640137,409.985229 657.455933,410.137634 
	C661.897461,410.180420 666.463440,410.765137 670.739746,411.944763 
	C683.221802,415.387878 689.255432,424.693115 690.539062,436.803375 
	C692.614502,456.385773 687.880493,474.750580 676.482666,490.676331 
	C670.969666,498.379364 663.290222,504.643219 656.113403,511.020538 
	C642.202393,523.381897 627.889099,535.289124 613.857910,547.516907 
	C588.058655,570.000244 562.348633,592.585815 536.587952,615.113403 
	C530.970154,620.026123 525.295959,624.874390 519.123169,629.734009 
	C515.224548,626.490051 513.440186,630.305115 511.332458,631.662659 
	C510.849121,631.973999 511.817932,634.539734 512.118408,636.067932 
	C512.118408,636.067932 512.107483,636.105652 511.845886,636.055298 
	C510.726135,636.997314 509.867950,637.989685 509.009827,638.982056 
	C509.009827,638.982056 509.013733,639.006409 508.836243,639.156372 
	C508.441833,639.505615 508.227020,639.707031 508.014313,639.910706 
z"/>
<path fill="#000000" opacity="1.000000" stroke="none" 
	d="
M334.816376,459.731171 
	C331.857178,462.878571 328.959808,462.329742 324.854126,460.802612 
	C316.730316,457.780945 308.011322,456.395905 299.618958,454.046448 
	C294.243317,452.541534 289.011780,450.521759 283.473022,448.535156 
	C298.498779,451.311066 313.774933,454.245728 329.025696,457.307220 
	C330.936310,457.690765 332.712463,458.744202 334.816376,459.731171 
z"/>
<path fill="#000000" opacity="1.000000" stroke="none" 
	d="
M445.066406,353.054382 
	C442.081848,350.975494 438.711365,349.277161 436.200806,346.730896 
	C432.163330,342.635986 428.329590,338.227081 425.117340,333.472778 
	C423.102936,330.491364 422.383301,326.635071 421.015808,322.805206 
	C429.181793,332.440674 437.414673,342.442261 445.593262,352.732727 
	C445.539001,353.021637 445.066406,353.054382 445.066406,353.054382 
z"/>
<path fill="#000000" opacity="1.000000" stroke="none" 
	d="
M300.325134,615.099915 
	C307.963776,613.923096 315.536530,615.467773 322.391846,619.218140 
	C324.958740,620.622498 329.651733,619.312439 330.043304,624.505615 
	C320.258728,621.664795 310.429688,618.497314 300.325134,615.099915 
z"/>
<path fill="#000000" opacity="1.000000" stroke="none" 
	d="
M393.081604,324.343994 
	C393.794769,323.755951 395.199005,323.146088 395.304657,323.320923 
	C400.238037,331.484741 405.059357,339.716248 409.883728,347.945770 
	C409.958435,348.073181 409.910919,348.272308 409.933655,348.849854 
	C407.489960,346.267700 404.772461,343.447205 402.635956,340.239746 
	C399.274109,335.192810 396.303284,329.885376 393.081604,324.343994 
z"/>
<path fill="#000000" opacity="1.000000" stroke="none" 
	d="
M363.838867,472.708069 
	C354.155457,470.968689 344.880157,467.639404 337.163208,460.297974 
	C346.504517,462.803101 355.976593,465.677368 363.838867,472.708069 
z"/>
<path fill="#000000" opacity="1.000000" stroke="none" 
	d="
M445.145386,353.411011 
	C445.066406,353.054382 445.539001,353.021637 445.775696,353.011414 
	C452.885590,359.148499 459.758789,365.295776 466.825134,371.715820 
	C456.856842,369.379730 449.682892,363.197662 445.145386,353.411011 
z"/>
<path fill="#000000" opacity="1.000000" stroke="none" 
	d="
M188.381134,580.630798 
	C194.912582,574.811401 205.016083,574.491577 207.846832,582.734924 
	C201.586395,582.271667 195.206177,581.473450 188.381134,580.630798 
z"/>
<path fill="#000000" opacity="1.000000" stroke="none" 
	d="
M513.752441,398.317963 
	C512.997253,399.166290 511.564056,400.595459 510.910797,400.299988 
	C504.167145,397.250122 496.188171,396.053436 492.172058,388.197723 
	C499.205505,391.266235 506.320984,394.682220 513.752441,398.317963 
z"/>
<path fill="#000000" opacity="1.000000" stroke="none" 
	d="
M475.233337,409.296448 
	C478.857239,405.635773 482.350311,409.252899 485.272308,410.494049 
	C488.606110,411.910156 490.958893,415.635742 493.872742,418.669434 
	C487.835510,415.825195 481.663574,412.669250 475.233337,409.296448 
z"/>
<path fill="#000000" opacity="1.000000" stroke="none" 
	d="
M74.353119,414.232971 
	C76.710106,413.802887 79.286896,413.743774 81.844933,413.493195 
	C86.438141,413.043213 91.171928,411.775116 94.851837,416.576843 
	C90.123146,416.868256 85.201729,417.082397 80.316719,416.754425 
	C78.358070,416.622894 76.479492,415.298920 74.353119,414.232971 
z"/>
<path fill="#000000" opacity="1.000000" stroke="none" 
	d="
M369.284973,638.242432 
	C376.176331,635.721375 379.195068,636.488953 381.919006,641.670532 
	C377.854767,640.820740 373.721039,639.625916 369.284973,638.242432 
z"/>
<path fill="#000000" opacity="1.000000" stroke="none" 
	d="
M512.422058,635.942322 
	C511.817932,634.539734 510.849121,631.973999 511.332458,631.662659 
	C513.440186,630.305115 515.224548,626.490051 518.824219,629.897766 
	C516.941772,631.992126 514.833740,633.904419 512.422058,635.942322 
z"/>
<path fill="#000000" opacity="1.000000" stroke="none" 
	d="
M630.784424,514.273682 
	C630.116638,520.468628 627.393494,523.131226 621.403503,523.173035 
	C624.224976,520.211243 627.361633,517.326233 630.784424,514.273682 
z"/>
<path fill="#000000" opacity="1.000000" stroke="none" 
	d="
M509.276581,638.829590 
	C509.867950,637.989685 510.726135,636.997314 511.826569,636.058899 
	C511.227020,636.967590 510.385193,637.822327 509.276581,638.829590 
z"/>
<path fill="#000000" opacity="1.000000" stroke="none" 
	d="
M183.366180,580.842957 
	C183.881866,580.695496 184.775070,580.557495 185.834656,580.560425 
	C185.248581,580.751770 184.496140,580.802124 183.366180,580.842957 
z"/>
<path fill="#000000" opacity="1.000000" stroke="none" 
	d="
M496.254639,420.100159 
	C496.610565,420.179047 497.190887,420.427307 497.882477,420.844482 
	C497.488831,420.765411 496.983948,420.517487 496.254639,420.100159 
z"/>
<path fill="#000000" opacity="1.000000" stroke="none" 
	d="
M508.205536,639.794922 
	C508.227020,639.707031 508.441833,639.505615 508.824341,639.159729 
	C508.833282,639.271667 508.635559,639.493713 508.205536,639.794922 
z"/>
<path fill="#000000" opacity="1.000000" stroke="none" 
	d="
M336.871277,459.928162 
	C336.814331,459.994781 336.632751,459.984955 336.178406,459.958374 
	C336.175720,459.781036 336.456055,459.751068 336.871277,459.928162 
z"/>
<path fill="#000000" opacity="1.000000" stroke="none" 
	d="
M73.447601,413.275024 
	C73.514511,413.290558 73.651070,413.452057 73.875443,413.746399 
	C73.798233,413.743225 73.649559,413.590454 73.447601,413.275024 
z"/>
</svg>